 <svg xmlns="http://www.w3.org/2000/svg" xmlns:xlink="http://www.w3.org/1999/xlink" viewBox="0 0 476.6 273.6" xmlns:v="https://vecta.io/nano">
    <style>
      <![CDATA[
      .I { enable-background: new;}

      .J {opacity: .5; animation-delay:.2s !important; }
	  .water {
	    animation: water 5s ease-out infinite;
	    transform-origin:center;
	  }
	  #whale {animation-delay:.2s !important;}

	  .waves {
	    animation: waves 5s ease infinite;
	    transform-origin:bottom;
	    animation-delay:0.1s;
	  }

	  @keyframes water {
	    0% {transform:translateY(0);}
	    33% {transform:translateY(-9px)}
	    90% {transform:translateY(0);}
	  }

	  @keyframes waves {
	    0%{transform:translate(20px, 5px);}
	    30%{transform:translate(-15px, 2px);}
		100%{transform:translate(20px, 5px);}

	

	  }
	  
      ]]>
    </style>
    <defs>
      <path id="A" d="M192.7 167.3c0 47.3-38.3 85.6-85.6 85.6s-85.6-38.3-85.6-85.6 38.3-85.6 85.6-85.6 85.6 38.3 85.6 85.6h0zm176.9-85.7c-47.3 0-85.6 38.3-85.6 85.6s38.3 85.6 85.6 85.6 85.6-38.3 85.6-85.6-38.3-85.6-85.6-85.6z" />
    </defs>
    <clipPath id="B">
      <use xlink:href="#A" />
    </clipPath>
    <linearGradient id="C" gradientUnits="userSpaceOnUse" x1="306.55" y1="269.04" x2="306.55" y2="-240.79">
      <stop offset="0" stop-color="#c7eeff" />
      <stop offset="1" stop-color="#427c9c" />
    </linearGradient>
    <path d="M-99.9-240.8H713V269H-99.9z" clip-path="url(#B)" fill="url(#C)" />
    <defs>
      <path id="D" d="M192.7 167.3c0 47.3-38.3 85.6-85.6 85.6s-85.6-38.3-85.6-85.6 38.3-85.6 85.6-85.6 85.6 38.3 85.6 85.6h0zm176.9-85.7c-47.3 0-85.6 38.3-85.6 85.6s38.3 85.6 85.6 85.6 85.6-38.3 85.6-85.6-38.3-85.6-85.6-85.6z" />
    </defs>
    <clipPath id="E">
      <use xlink:href="#D" />
    </clipPath>
    <linearGradient id="F" class="water" gradientUnits="userSpaceOnUse" x1="301.38" y1="541.25" x2="301.38" y2="121.85">
      <stop offset=".1" stop-color="#104463" />
      <stop offset="1" stop-color="#628899" />
    </linearGradient>
    <path class="water" d="M-25 186.7h652.7v354.6H-25z" clip-path="url(#E)" fill="url(#F)" />
    <defs>
      <path class="water" id="G" d="M192.7 167.3c0 47.3-38.3 85.6-85.6 85.6s-85.6-38.3-85.6-85.6 38.3-85.6 85.6-85.6 85.6 38.3 85.6 85.6h0zm176.9-85.7c-47.3 0-85.6 38.3-85.6 85.6s38.3 85.6 85.6 85.6 85.6-38.3 85.6-85.6-38.3-85.6-85.6-85.6z" />
    </defs>
    <clipPath id="H">
      <use xlink:href="#G" />
    </clipPath>
    <g clip-path="url(#H)">
      <g class="water" opacity=".1">
        <linearGradient id="I" gradientUnits="userSpaceOnUse" x1="301.375" y1="612.78" x2="301.375" y2="140.68">
          <stop offset="0" stop-color="#104463" stop-opacity="0" />
          <stop offset=".13" stop-color="#104463" />
          <stop offset="1" stop-color="#628899" />
        </linearGradient>
        <path d="M423.5 183.2c-66 5.1-132.3 5.1-198.3 0H-25v429.6h652.7V183.2H423.5h0z" fill="url(#I)" />
      </g>
      <linearGradient id="J" gradientUnits="userSpaceOnUse" x1="175.327" y1="431.753" x2="175.327" y2="128.6">
        <stop offset=".72" stop-color="#152d59" stop-opacity="0" />
        <stop offset=".75" stop-color="#152d59" />
      </linearGradient>
      
      <g fill="#f2f2f2" class="I waves ">
        <path d="M238.3 186.6c4.9 0 8.8-.3 8.8-.6s-4-.6-8.8-.6-8.8.3-8.8.6 3.9.6 8.8.6zm-78.7 5.4c5 0 9.1-.7 9.1-1.5s-4.1-1.5-9.1-1.5-9.1.7-9.1 1.5 4.1 1.5 9.1 1.5zm-5.4 9.1c32.4 2.5 72.4 1.9 110-.1 47-2.4 92.8-6.8 139.7-9.4s97.6-3.2 133.7 1.6c-32.9-6-85.7-6-134-3.5s-95.3 7.2-143.5 10c-35.6 2.2-73.7 3.2-105.9 1.4h0zm460-15.4c18-1.2 35.2-4.2 45.2-9.4l-13.1 3c-25.5 7.1-62.3 7.5-96.8 6.3s-69.8-3.8-102.9-1.7l111.5 2.3c19 .3 38.1.7 56.1-.5z" class="J" />
        <path d="M111.1 191.1c13.8 1.9 28 3.8 43.2 4.9 32.3 2.5 67.8 1.9 96-1.7-39.5 1.6-81.9.3-120.4-3.5-1.1-.1-114.8-9.9-152.5-8.9v.4 1.3c37.4-.1 122.8 6 126.5 6.5l7.2 1h0z" opacity=".3" />
        <ellipse cx="458.3" cy="185.3" rx="3.4" ry=".9" class="J" />
        <path d="M364.8 184.9c2 0 3.7-.3 3.7-.6s-1.6-.6-3.7-.6-3.7.3-3.7.6 1.7.6 3.7.6zm17.4 12.6c0 .2 1.2.4 2.7.4s2.7-.2 2.7-.4-1.2-.4-2.7-.4-2.7.1-2.7.4zm96.3 10.7c-35.9 1.5-70.6 6.4-105.8 10s-73.2 5.9-105.7 2.3c24.8 4.7 57.4 4.4 87.6 2.1s59.6-6.3 89.7-8.7l3.4-.3c.4 1.4 6.6 2.4 14.3 2.4s14.3-1.1 14.3-2.6c0-.5-.9-1-2.5-1.4 38.3-1.6 76.7-.6 111.9 2.9-30.9-5.9-69-8.3-107.2-6.7h0z" class="J" />
        <ellipse cx="153.1" cy="209.6" rx="3.7" ry=".9" class="J" />
        <ellipse cx="245.5" cy="222.5" rx="14.4" ry="1.1" class="J" />
        <path d="M309.4 191.4c-3.4 0-6.1.6-6.1 1.3s2.8 1.3 6.1 1.3 6.1-.6 6.1-1.3-2.7-1.3-6.1-1.3z" class="J" />
        <ellipse cx=".7" cy="185.8" rx="8.6" ry=".7" class="J" />
        <path d="M594.8 205.2c-65-14.7-142.2-15.4-214.9-11.6-72.8 3.9-144.4 11.9-217.6 13.5S11.3 203-45 182.6l-4.7-.4c55.1 21.3 132 29.1 205.8 29.1s146.5-6.7 219.7-10.9 149.2-5.6 219 4.8h0z" opacity=".3" />
        <path d="M96.9 207c0-.5-1.1-.9-2.5-.9s-2.4.4-2.4.9 1.1.9 2.5.9 2.4-.4 2.4-.9z" class="J" />
        <path d="M119.4 216.9c-6.2 0-11.3.4-11.3 1.1-18.6-2.2-36.3-5.3-54.1-8.1-21.4-3.5-43.6-6.8-66.7-8.1s-47.6-.4-63.2 4l-.7 1c32.9-4.4 74.8-3.9 111 1.4 28.3 4.1 55.4 11.2 85.1 11.1 6.3 0 11.3-.4 11.4-1.1s-5.2-1.3-11.5-1.3h0z" opacity=".3" />
      </g>
	  <path id="whale" class="water" d="M301.3 387c1.2-5.7-22-10.5-35.8-15.1-3.3-1.1-6.8-3.2-10.5-4.8 7.5-7.5 12.9-16.6 11.5-25.5-4.8 9.7-19.1 12.7-33 18.4-5.1-2.2-10.1-4.6-15-7.5l4.7-16c4.9-18.1 4.3-52.4-13.9-62.4 7.8 16-9.1 39.3-10.4 64.1-6.6-5.9-13.4-13.1-20.5-22-26.7-33.8-33.7-46.6-41.2-81.9-.1-.4-.2-.8-.2-1.2 2.2-3.8 5.4-10.8 3.5-11.1-.7-.1-3 2.1-5.9-1.1-2.9-14.7-5-23.2-17.2-39.5 12.5-10.9 19.5-22.7 14.8-37.7-5.1 10.3-29.3-2.5-24.8 22.6-12.7-18.9-37.6-24.4-58.2-37.8 8.6 37.6 30.5 56.6 57.2 59 1.9 1.8 3.3 4.9 4.4 8.9h0c.2.6.3 1.2.5 1.8 4.6 19.8 2 57.1 2.3 69.8 1.4 57.8 18.3 115.9 63.8 146.9 45.4 30.9 107 15.5 121.6-20.6 1-2.2 1.8-4.7 2.3-7.3h0z" fill="url(#J)" />
      <g class="J waves ">
        <g fill="#fff">
          <path d="M45.8 195.9zm-7.6-1h0zm12.2 1.5h0 .3-.3zM22 192.6h.1-.1zm9.6 1.5h-.1.1zm21.2 2.9h-.1c-.1 0 0 0 .1 0zm4.6.3zm-1.8-.2h-.1.1zm-.2 0h0 0zm-48-7.1h0 0zm42.9 6.9h-.4c.1-.1.3 0 .4 0zm-46.1-6.5h0c-.1 0 0 0 0 0zm28 3.8h0 0zm-6.1-.2h0 0z" />
          <path d="M26.4 194h-.3.3zm-1-.1zm6.5.9h0 0zm-1.3-.1h0c-.1-.1-.1 0 0 0zm-8.4-1.2h0 0z" />
          <path d="M10.1 191.6l4 .6c.3 0 .6.1 1 .1v.1h.3c.1 0-.2 0 0 0h.1s.8.2.3.1l1.2.2c.3.1.2 0 .5 0 .1 0-.1 0-.1 0 .9.2 1.1 0 1.9.2h-.1c.1 0 .4.1.4 0-.1-.1-.2 0-.4-.1 0-.1.3 0 .3 0 .2.1.3 0 .5.1.3.1.7.1.9.2h.6c.2.1-.1 0 .2.1h0l.2.1c.3 0 .2 0 .6.1h-.2c.2 0 .4.1.7.1h-.2c.2.1.3 0 .4.1 0 0-.3-.1-.1-.1s.4 0 .5.1h-.2c.4 0 .2 0 .6.1.3 0 .6.1 1 .1h-.1.3c-.2-.1-.1-.1-.2-.1.3.1.5 0 .9.1h-.2c-.2 0-.2.1-.5.1.2 0 .4 0 .3.1l.1-.1h.3s-.2-.1 0-.1c.3 0 .1.1.2.1h.5-.1c.3.1.7.1.7.2h-.1 0c-.3 0 .2 0 .1.1 0 0 .4 0 .5.1v-.1c.6 0 0 .1.5.1.4 0-.1 0 .1 0s.3.1.7.1c.1 0 .3.1.3.1.2 0 .6.1.8.1-.4-.1-.4 0-.8-.1h.1c.3 0 .7.1.9.1 0 0-.1 0 0 0a3.75 3.75 0 0 1 1 .1c0 .1-.2 0-.4 0 .3.1.3 0 .7.1h-.3l.5.1h0c.1 0 .4.1.6.1.7.1.8 0 1.1 0 .1 0 .1.1.1.1-.2-.1-.1 0-.2 0 .2 0 .5.1.3.1.3 0-.1-.1.1 0l.5.1s-.2-.1 0-.1.3 0 .6.1c0 0 .1.1-.1 0 .1 0 .3.1.4 0-.3-.1.5 0 .3 0l.3.1h-.2c.1.1.2 0 .3 0a2.27 2.27 0 0 1 .4.1c.1 0 .3 0 .4.1h.1l.5.1v.1c.2 0 .1-.1.3 0-.2 0 .4.1.1.1.2.1.6.1.8.1s-.3-.1-.2-.1c.7.1.8 0 1.3.1h-.1.5c-.1 0 .3.2.9.2 0 0-.3-.1-.2-.1h.3-.1c.3 0 .6.1.7.1l.4-.2h-.1.5c.4 0 .5.1.7.1-.1 0-.2-.1.1-.1 0 .1.6.1.6.1.1 0 .3.1.3 0v.1c0-.1.5 0 .8 0-.1.1.3 0 .5.1.1-.1.6 0 .6 0 .2 0 .2.1.3.1h.1c.1 0 .6.1.8.1h.3.1.1.1c0-.1.2 0 .5 0h0c.1 0 .1 0 .2.1-.1 0 .5-.1.1-.1h.3l.1.1h.2c.2 0 .3.1.5.1-.2 0-.4.1 0 .1h-.5 0 .5c0 .1.1.1.4.1l-.2-.1h-.1.5c-.3-.1.6 0 .4-.1h.3c-.3 0 .2.1.2.1.1 0-.2-.1-.1-.1.2 0 .3.1.4.1h-.1l.3.1s-.3-.1 0-.1c.1 0 .3 0 .3.1-.1 0 0 .1-.2.1.2 0 .7.1.5 0h.2c-.1 0-.5-.1-.1-.1h0 .3.1.2s.1 0 .1.1h.3c.2 0 .2 0 .2.1.2 0 .7.1.8.1.3 0-.1 0 .1 0 .3.1 1.1.1 1.6.1-.1-.1.1 0 .2-.1-.1 0 .5.1 0 .1h.3c.2.1-.5 0-.2.1h.9c-.1 0 .3 0 .2.1h-.3.1c.7.1.2-.1.6-.1s.3.1.3.1h.4c-.3 0-.5-.1-.3-.1.2.1.6.1.7 0-.6-.1-.4 0-1-.1-.1 0-.1.1-.4 0 .2 0 0 0-.1-.1.1 0-.2 0-.3 0s.2-.1-.1-.1l-.1.1c-.1 0 .1-.1-.2-.1.2 0 0-.1.3 0-.5-.1-.7 0-1.1 0h.1-.3c-.2 0 .2 0 .1 0h-.4 0-.2c.1 0 .2 0 .2-.1h-.4s-.3-.1 0-.1h-.6v-.1c-.1 0-.2 0 0 0-.2 0-.9 0-.8-.1-.5 0-.6 0-1.2-.1.4 0-.5-.1 0-.1-.3-.1-.3 0-.5 0s-.1-.1.1-.1h-.2 0-.2c-.2 0 0-.1-.3-.1h-.1-.2c.1 0-.1 0-.3 0h0-.2c.2 0-.2 0-.1-.1H50h0c-.4 0 0-.1-.4-.1h0c-.5-.1-.8-.1-1.2-.1h.2c-.3 0-.8-.1-1.2-.1-.1-.1-.1-.1-.5-.1h-.4c-.2-.1-.7-.1-.7-.1h-.3 0 0c-.4-.1-.7 0-1.1-.1h.1-.2.1l-.8-.1h.2-.5c.3 0-.3 0-.3-.1h0-.2c-.3 0-.2-.1-.5-.1h.2c.1 0-.1 0-.2 0 0 0-.1 0 0 0-.2 0-.6-.1-.7-.1s-.1-.1 0-.1c-.6 0-.2 0-.8-.1h0-.2l-.3-.1h.1c-.2 0-.3 0-.5-.1h.1c-.5 0-.6-.1-1-.1h.1c-.4 0-.3-.1-.8-.1H38h0-.2l-.1-.1h-.1c-.2-.1-.5-.1-.8-.2v.1c-.7 0-1.7-.3-2.5-.3h0-.3c-.2-.1.1 0 .1-.1h-.6c-.2-.1.1 0 .2 0-.4 0-1.1-.1-1.3-.2-.3 0-.7-.1-1-.1h.2c-.1 0-.3-.1-.4-.1h.1c-.2 0-.7-.1-.8-.1 0 0 0 .1-.2 0-.1-.1-.6-.1-.9-.1h.2-.5 0l-.8-.1c-.1-.1-.7-.1-.7-.1-.3 0 .2.1-.1 0-.1 0-.3 0-.3-.1h0-.2.2-.4c-.2-.1-.5-.1-.6-.1h.1c-.6-.1-.9-.2-1.4-.2l-.3-.1h.1-.6 0c-.4-.1-1-.1-1.4-.2h.1c-.5-.1-.5-.1-.9-.1l-.4-.1h.1c-.3 0-.7-.2-.6-.1h-.5c-.4-.1-.1 0-.3-.1-.3-.1-.3 0-.7-.1h0c-.2 0-.3 0-.5-.1h.1c-.4 0-.5-.1-.8-.1-.2 0-.5-.1-.5-.1-.5-.1-.9-.1-1.4-.2-.1-.1-.1 0-.4-.1h0c-.7-.1-1.5-.3-2.2-.5h0-.2c-.8-.1-1.9-.3-2.5-.5-.2 0-.6 0-.9-.1h0l-1.9-.3h.1c-.2 0-.4-.1-.5-.1l.2.1c-.2 0-.4-.1-.5-.1h-.3-.1.2l-.1-.1c-.1 0-.5-.1-.6 0 0 0-.3-.1-.1-.1l-1-.2.2.1s-.3 0-.5-.1c.2 0 0-.1-.1-.1-.2 0 .1.1 0 .1-.2 0-.6-.1-.7-.1h.1c-.2 0-.3-.1-.6-.1-.2 0-.4-.1-.3 0-.3-.1-.1-.1-.2-.1-.2 0-.6-.1-.6-.1-.2.1-.8-.2-.9-.1h-.3s-.1.1-.3 0-.1-.1-.2-.1l-.1.1-3.8-.9c-.5-.1-1.3-.2-1.9-.4h.1l-.6-.1.5.1c-.1 0-.2 0-.4-.1l-2.5-.6c-.6 0-.3-.2-.9-.2h.1c-.6-.1-.9-.2-1.5-.2.1-.1-.4-.1-.3-.1h-.1c-.1-.1-.4-.1-.4-.1h-.3 0c-.4-.1-1.1-.2-1.2-.3-.9-.1-2.2-.5-3.2-.8-.1 0-.5-.1-.7-.1l-.2-.1c-.2-.1-.5-.1-.7-.1-.2-.1-.5-.1-.7-.1-.3-.1-.5-.2-.4-.2 0 .1-.6-.1-.6-.1l-7.3-2c-3.9-1.1-8.1-2.3-9.9-2.6-.1 0-.4-.1-.3 0-.2-.1-.3-.1-.4-.1.3.1-.1.1.2.2l-.2-.1s.3.1.2.1h.1c.2.1.2.1.3.1.2 0 .3 0 .7.1h-.1c.3.1.2.1.2.1h-.1l.2.1c-.2-.1-.5-.1-.3-.1.4.1-.1 0 .2 0 .2.1.1.1.1.1l.3.1s-.2-.1-.1 0l.4.1c0 .1.4.1.6.2-.3-.1 0 0 0 0l.7.2c.1 0-.2 0-.1 0 .1.1.2 0 .3.1 0 0 .5.1.5.2.5.2.2 0 .6.1 0 .1-.3-.1-.2 0l.4.1h-.3c1.2.4 1.8.7 2.9 1 .1.1-.1 0-.2 0 .8.2 1.1.4 1.8.6h0c.9.4 2.1.6 3.1.9l-.1-.1c.1 0 .4.1.6.1 0 0-.1 0 .2.1-.1 0-.2-.1-.1-.1.9.3 2.8.8 4.3 1.2l6.3 1.6c-.3-.1-.2-.1.1 0 .6.3 1.1.2 1.7.5 1.2.2 2.2.6 3.3.8h0c0-.2 0-.2.2-.2h0c.4.1.9.2 1.1.2h0c.2.1.1.1.4.1h0 .3c0 .1.7.1.9.2.3.1.9.2 1.4.3.1.1.7.2 1 .3.7.1 1.8.4 2.7.6v-.1l.2.1c.2.1.6.1.7.2-.1-.1-.2 0-.3-.1-.2-.1 0-.1.3 0h0 .2l.2.1c.8.1 1.3.2 2.2.4-.1 0 .6.1.4.1.5.1-.1-.1.2-.1.1 0 .3 0 .3.1-.1 0 .1.1 0 .1l.3.1h-.1c.7.1 1.2.3 1.8.4.1 0-.2-.1-.2-.1.6.1.5.1 1.1.2h-.2c.2 0 .3 0 .6.1 0 .1-.3 0-.4 0 .2 0 .7.1.6.1.3 0 .3.1.5.1 0 0-.2-.1-.1-.1.3.1.9.2 1.2.3.3 0 .3.1.7.2l-.1-.2z" />
          <path d="M32 194.9h-.2-.1.3 0zm-7.8-1.2s-.1 0 0 0c-.1 0-.1 0 0 0zm-2-.2h0zm14.3 1.9zm12.4 1.3zm-.7-.1h-.1.1zM33.5 195h-.1.1zm14.5 1.6h-.2 0zm1.1.2h-.2.2zm-8-1h0c-.2 0-.1 0 0 0zm6.1.8h0-.1zm2.7.3s-.1 0 0 0c-.1 0 0 0 0 0h0zm-6.2-.7c0-.1-.1-.1 0 0zm413-4.9h.3-.3zm-186.3 15.2c-.4.1-.8.1-1.1.2l1.1-.2zm139.7-13.9h0zm-140.2 14.2h-.3.3zm130.4-12.5h-.3.3z" />
          <path d="M269.9 206.8h.3-.1-.2 0zm91.7-10.6h.1-.1 0zm-2.5.2c.2 0 .4 0 .5-.1-.3.1-.4.1-.5.1zm-89.9 10.3l-.7.1c.3-.1.5-.1.7-.1zm62.3-7.5h.2-.2zm138.5-7h0 0z" />
          <path d="M471 192.2h-1 1zm-3.2 0h.1-.1zm-10.2 0h0 0z" />
          <path d="M419.2 193.3l12.7-.5c.8-.1 2-.1 3.3-.2l.1.1 1-.1c.4 0-.8 0 0 .1l.4-.1h.9l4-.1c.9 0 .5-.1 1.5-.1.2 0-.4 0-.3.1l6-.2h-.2 1.4c-.4-.1-.5.1-1.3 0 .1-.1 1-.1 1-.1h1.6 3c.5 0 1-.1 2-.1.7 0-.2.1.8.1h.2.6c.9 0 .7-.1 1.8-.1h-.6 2.2-.8c.6.1 1 0 1.3 0-.1 0-.9 0-.5-.1h1.5-.6 1.9-.1 3.1-.2 1c-.7 0-.5 0-.6-.1.9.1 1.4-.1 2.9 0h-.8c-.5.1-.6.1-1.5.1h1.1l.2-.1h.9c.1 0-.7-.1.1-.1.9 0 .5.1.6 0 1.2 0 .5-.1 1.7 0h-.5l2.3.1h-.5 0c-.9 0 .8 0 .5.1-.1 0 1.1 0 1.7 0l-.2-.1c1.8-.1-.1.1 1.7.1 1.1 0-.4 0 .3 0 .8 0 1 .1 2.2.1.3 0 .9.1 1 .1l2.4.1c-1.2-.1-1.2 0-2.5-.1h.4l2.8.1h-.1l3 .1c.2.1-.6 0-1.1 0 .8.1.9 0 2.2.1.1 0-.9 0-1 0h1.4 0c.2-.1 1.1.1 2 .1h3.6c.3 0 .4.1.3.1-.5-.1-.4 0-.6 0 .7 0 1.5.1 1.1.1 1.1 0-.4-.1.3 0l1.5.1c-.2 0-.7-.1.1-.1a13.43 13.43 0 0 1 1.9.1c-.1 0 .3.1-.4 0 .4 0 1.1.1 1.3.1-1-.1 1.6.1.9 0l1 .1h-.6c.3.1.8 0 1.1.1.3 0 1.2.1 1.3.1.3 0 1 .1 1.2.1h.2l1.5.1c.1 0 .2.1 0 .1.6 0 .2-.1 1.1 0-.5 0 1.1.1.4.1.5.1 1.9.2 2.7.2.5 0-.9-.1-.8-.1 2.2.1 2.4 0 4 .2h-.4c1 0 .9 0 1.5.1-.3 0 1.1.2 2.8.4.1 0-.9-.1-.7-.2l1.1.1c.1 0 0 0-.2 0l2.1.2 1 .2-.4-.1c.1 0 1.2.1 1.5.1l2.2.2c-.2 0-.7-.1.2-.1 0 .1 1.9.2 1.8.3.4 0 1 .1 1 .1l-.1.1c.1-.1 1.4.1 2.4.1-.2.1 1.1.1 1.5.2.2-.1 1.8.1 2 .1.8.1.7.1.9.2h.4c.4.1 1.8.2 2.7.4l.8.1.3.1c.1 0 .8.1.4 0l.4.1c0-.1.6.1 1.5.1.2 0 .1.1 0 0 .4.1.2.1.5.1-.3-.1 1.6.1.4-.1-.1 0 .6 0 1 .1l.2.1h.5c.7.1.9.2 1.5.2-.5-.1-1.2-.1.2.1-.8-.1-1.1-.1-1.5-.1.3 0 .4.1 0 0 1.1.1.4 0 1.5.1-.1.1.2.1 1.2.2l-.7-.1h.1c-.3 0-.3-.1-.4-.1.2 0 1.3.1 1.5.2-1.1-.2 1.9.2 1.2.1.1 0 .9.1 1 .1-.9-.1.7.2.5.2.3 0-.7-.1-.2-.1.5.1.9.2 1.2.2h-.2l.8.1c.1 0-.8-.2 0-.1.2 0 1 .1 1 .1-.4 0-.1.1-.8 0 .5.1 2.3.3 1.6.1l.7.1c-.4-.1-1.5-.3-.2-.1h0l.9.1.4.1h.5a2.27 2.27 0 0 1 .4.1c1 .2.9.1 1 .1.5.1.8.1.5.1.8.1 2 .4 2.6.5 1 .1-.2-.1.4 0 .8.2 3.3.6 4.9.9-.4-.2.5.1.8 0-.4 0 1.5.3.1.1l.9.1c.6.1-1.5-.2-.6 0 1 .2 1.6.2 2.8.4-.4 0 .9.1.6.1-.2 0-.6-.1-.9-.1l.2.1c2.1.4.6 0 1.8.2 1.3.2 1 .2 1.1.3.2.1.9.1 1.2.2-.8-.1-1.5-.3-1.1-.3.6.2 1.9.3 2.3.4l-3-.6c-.2 0-.2.1-1.3-.2.7.1 0 0-.2-.1.2.1-.7-.1-1.1-.1-.3-.1.7 0-.4-.2l-.2.1c-.4-.1.2 0-.7-.2.5 0-.1-.1 1.1.1-1.4-.3-2.2-.3-3.3-.5h.2c-.2 0-.7-.1-1-.1-.7-.1.6.1.4 0l-1.2-.2h0c-.3 0-.6-.1-.7-.1.3 0 .5 0 .8.1l-1.3-.2c.1 0-1-.2-.1-.1l-1.8-.3-.2-.1c-.5-.1-.5-.1.1 0l-2.5-.4-3.8-.5c1.4.1-1.5-.3-.1-.1l-1.7-.2c-.6-.1-.3-.1.3-.1l-.8-.1h0l-.7-.1c-.7-.1-.2-.1-.9-.2h-.2l-.5-.1c.2.1-.3 0-.8-.1h0l-.7-.1c.7.1-.6-.1-.3-.1l-1.6-.2.2.1c-1.3-.1 0-.1-1.1-.2l.1.1c-1.5-.3-2.7-.3-3.8-.5.7.1.5 0 .5 0l-3.7-.4-1.5-.3-1.1-.1c-.7-.1-2.2-.2-2.2-.2-.2 0-.7-.1-1.1-.1h-.1.1l-3.6-.4h.2-.6c-.1 0 .1 0 .2 0l-2.6-.3.5.1c-.5-.1-.9-.1-1.5-.1 1 .1-.9-.1-1-.1h.6c-.5 0-.8-.1-.7 0l-1.6-.2.7.1c.2 0-.3 0-.7 0-.1 0-.4-.1-.1 0l-2.3-.2c-.4-.1-.3-.1 0-.1l-2.4-.2h0-.6l-.8-.1.3.1c-.5 0-.9 0-1.5-.1h.3l-3.3-.2c-.1 0 .1 0 .2 0-1.4 0-1-.1-2.4-.2.1 0-.1 0 0 0h-.6 0-.5l-.4-.1h-.2c-.7-.1-1.6-.1-2.5-.2l.1.1c-2.3 0-5.3-.5-8.1-.5h0-1.2c-.6-.1.4 0 .2-.1h-2c-.7-.1.3 0 .6 0-1.4 0-3.3-.1-4.3-.1 0 0-.1 0 0 0-.9 0-2.1-.1-3.1-.1h.5c-.4 0-.8-.1-1.1 0h.4c-.8 0-2.2-.1-2.4-.1.1 0 0 .1-.6 0-.4-.1-1.8 0-2.8-.1h.7-1.5.1-2.5c-.4-.1-2.3 0-2.1-.1-.9 0 .7 0-.4 0h-1 .1-.8.5c-.7 0-1.2 0-1.2.1-.6 0-1.5 0-1.8-.1h.2c-1.8 0-2.9-.2-4.3-.1-.1 0-.1 0 .1 0h-1.1.3-1.8 0-4.6.2-2.9.1-1.1.2c-.8.1-2.4 0-1.8 0-.5 0-1.3.1-1.4.1h-1c-.9 0-1 .1-2.2 0h0-1.7.2c-1.3.1-1.6-.1-2.6.1h-1.5l-4.4.1c-.2-.1-.3 0-1.3 0h.1l-7.2.2h-.1l-.5.1-8.1.2c-.7 0-1.7.1-2.8.2h.1l-5.9.3c.1 0-.1 0 .1-.1-.5.1-1.2.1-1.6.1h.5c-.6.1-1.4.1-1.7.1l-.9.1h-.2-.2-.5c-.2 0-1.5.1-1.8.2h-.3l-3.4.2h.5c.1 0-1 .1-1.5.1.7-.1 0-.1-.2-.1-.5 0 .4 0 .2.1-.6.1-1.8.1-2.1.1h.3c-.8.1-1.1 0-1.9.1-.7.1-1.2.1-1.1.1-1 .1-.4 0-.7 0-.5.1-1.9.1-2 .1-.5.1-2.7.1-2.9.2h-.8s-.2.1-.9.1h-.7l-.4.1c-3.6.1-8.4.6-12.4.8l-6.1.6h.2l-2.1.1 1.5-.1c-.5.1-.8.1-1.2.1-2.3.2-5.3.3-8 .7-1.8.3-1.2 0-2.9.3.1 0 .2 0 .3-.1-1.8.2-2.8.3-4.7.6.2-.1-1.2.1-1 .1l-.1.1c-.4 0-1.4.1-1.2.1l-.8.1h-.1c-1.1.1-3.4.4-4 .3l-10.3 1.1c-.5.1-1.5.2-2.2.3h-.8l-2.3.3h.1c-.8.1-1.5.1-2.3.3-.9.1-1.7.1-1.5.1-.1.1-1.9.2-1.9.2l-23.7 2.7-31.8 4.1c-.4.1-1.4.2-1 .2-.8.1-1.1.1-1.3.1 1.1-.1-.3.1.7.1l-.7.1c-.1 0 .9-.1.8-.1l.2-.1c.5-.1.8-.1 1-.1.5-.1.8-.2 2-.3h-.3c1-.1.6 0 .8 0h-.2l.8-.1c-.6.1-1.7.2-1.1.2 1.2-.1-.3 0 .6-.1.5-.1.4 0 .4 0l1-.1s-.6.1-.2.1l1.2-.2c.2.1 1.3-.2 1.9-.2-.9.1.1 0-.1.1l2.2-.3c.2 0-.6.1-.2.1s.7-.1.9-.1 1.6-.2 1.6-.1c1.5-.1.6-.1 2-.3.2 0-1.1.1-.5.1l1.4-.2c-.1 0-.3.1-.8.1 3.9-.4 6-.5 9.5-1 .5 0-.4.1-.7.1 2.6-.4 3.6-.3 5.8-.6h0c3.1-.2 6.7-.8 10.2-1.1h-.4c.5-.1 1.2-.2 1.8-.2.1 0-.4.1.6 0-.2 0-.6.1-.5 0 3-.2 9.2-1 14.1-1.5l20.2-2.1c-1 .1-.6 0 .2-.1 2-.1 3.5-.4 5.6-.5 3.8-.4 7.1-.6 10.6-1.1h.1c.5 0 .7-.1 1.2-.1h0c1.3-.1 2.9-.3 3.6-.3v-.1c.8-.1.4 0 1.2-.1h0l.9-.1c-.1.1 2.2-.2 2.8-.2l4.4-.4a76.93 76.93 0 0 0 3.3-.2l8.5-.7-.1-.1.8-.1h0c.6 0 1.8-.1 2.4-.1-.4 0-.5 0-1 .1-.6 0 0-.1.8-.1h0l.6-.1c.1 0 .6 0 .7.1 2.5-.2 4.2-.4 6.9-.5-.3.1 1.9-.1 1.4 0 1.6-.1-.3 0 .5-.1.4 0 .9-.1 1-.1-.2 0 .4 0 0 .1l1-.1c.1 0-.1 0-.2 0 2.1-.2 3.8-.2 5.7-.3.1 0-.8 0-.6 0 1.9-.2 1.7 0 3.5-.2l-.4.1c.6-.1.8-.1 1.8-.1.2 0-.8.1-1.3.1.7 0 2.3-.1 1.8-.1.8-.1 1.1 0 1.5 0h-.3c1.1-.1 2.7-.1 4-.2h0c.3-.9.2-.8 1.7-.9h0zm44.7-1.1h-.2.2z" />
          <path d="M457.8 192.2c.4 0 0 0-.2 0h.2z" />
        </g>
        <g opacity=".38" fill="#fff">
          <path d="M61.2 219.2zm-25.4-3.5h.3-.3zm40.6 5.3c.2 0 .5.1 1 .1l-1-.1h0zm-62.8-8h-.4.4zm70.9 9.1l-.4-.1s.1.1.4.1zm15.6.6s-.1 0 0 0c-.1 0-.1 0 0 0zm-6.1-.3h-.4.4zm-.7 0h.2-.2zm-17.1-.9c-.4 0-1.4-.1-1.4-.1.6 0 1.2.1 1.4.1zm-60.5-8.2h.2c.1 0 0 0-.2 0zm-.9.7h0 0 0zm-4.3-.4h-.3c.1-.1.1-.1.3 0z" />
          <path d="M-58.5 215.3c4.1-.5 9.4-1 13.4-1.3.9-.1 2.2-.2 3.5-.3l.1.1 1.1-.1c.4 0-.8.1 0 .1l.4-.1c.1 0 2.8-.2 1 0l4.2-.3c.9-.1.5-.1 1.6-.1.2 0-.4 0-.3.1 3.1-.1 3.5-.4 6.4-.5h-.2c.5 0 1.4-.1 1.4-.1-.4-.1-.5.1-1.4.1.1-.1 1.1-.1 1-.1.7 0 1.1-.1 1.6-.1 1 0 2.4-.1 3.2-.1.5 0 1-.1 2.1-.1.8 0-.2.1.9.1h.2.7c.9 0 .8-.1 1.9-.1l-.6.1h2.3-.8 1.4c-.1 0-.9 0-.5-.1h1.6-.6 2-.1c.9 0 2 0 3.3.1h-.2 1.1c-.7 0-.5 0-.6-.1 1 .1 1.5-.1 3.1.1h-.8c-.6 0-.6.1-1.6.1h1.2l.2-.1c.4 0 .7 0 .9.1.2 0-.7-.1.1-.1 1 0 .5.1.7.1 1.3 0 .5 0 1.8.1h-.5c.9.1 2.2.1 2.5.2h-.5 0c-1 0 .8 0 .5.1-.1 0 1.2 0 1.8.1l-.2-.1c1.9 0-.1.1 1.8.2 1.2.1-.5-.1.3 0s1.1.1 2.3.2c.3 0 1 .1 1.1.2.7 0 2.2.2 2.6.2-1.2-.1-1.2 0-2.7-.2h.4c1 .1 2.3.1 3 .2h-.1c1.4.1 1.8.1 3.2.3.2.1-.6 0-1.2-.1a39.95 39.95 0 0 0 2.3.2c.1.1-.9-.1-1.1-.1l1.5.1h0c.2 0 1.2.1 2.1.2l3.8.3c.3.1.4.1.3.1-.5-.1-.4-.1-.6-.1.7.1 1.6.2 1.2.2 1.2.1-.4-.1.3 0l1.6.2c-.2-.1-.8-.1.1-.1.7.1 1 .1 2 .2-.1 0 .3.1-.4 0 .4.1 1.1.2 1.4.2-1-.2 1.7.2.9 0l1 .2c-.2 0-.3 0-.6-.1.3.1.8.1 1.2.1.4.1 1.3.2 1.4.2.3 0 1.1.1 1.2.2.5.1 0 0 .2 0l1.6.2c.1 0 .2.1 0 .1.6.1.2-.1 1.2.1-.5 0 1.2.2.4.2.5.1 2 .3 2.9.4.5 0-.9-.1-.8-.2 2.3.3 2.5.2 4.2.4l-.4-.1c1.1.1 1 .1 1.6.2-.3 0 1.2.3 2.9.5.2 0-1-.2-.7-.2l1.2.1c.1 0 0 0-.2 0 1 .1 1.9.3 2.2.3l1 .2-.4-.1c.2 0 1.3.1 1.6.2 1.2.1 1.6.2 2.3.3-.2-.1-.7-.2.2-.1 0 .1 2 .3 1.9.3.4.1 1 .2 1.1.1l-.1.1c.1-.1 1.5.1 2.5.2-.2.1 1.2.1 1.6.3.2-.1 1.9.2 2.1.2.8.1.7.1.9.2h.4c.4.1 1.9.3 2.9.4h.9l.3.1c.1 0 .8.1.4 0l.5.1c.1-.1.7.1 1.6.1.2 0 .2 0-.1 0 .5.1.3.1.5.1-.3-.1 1.7.1.4-.1-.1 0 .6 0 1.1.1l.3.1h.6c.7.1 1 .1 1.6.2-.6-.1-1.3 0 .2.1-.8-.1-1.2-.1-1.6-.1.3 0 .5.1 0 0 1.2.1.4 0 1.6.1-.1.1.3.1 1.3.2l-.8-.1h.2c-.3 0-.4-.1-.4-.1.2 0 1.4.1 1.6.1-1.2-.2 2.1.1 1.3 0 .1 0 .9.1 1 .1-1-.1.7.1.6.1.4 0-.8-.1-.3-.1.6.1 1 .1 1.3.2h-.2l.9.1c.2 0-.9-.1 0-.1.2 0 1.1.1 1 .1-.4 0-.1.1-.8 0 .6.1 2.5.2 1.7.1l.7.1c-.4-.1-1.7-.2-.3-.1h0 1l-.5.2h.5a2.27 2.27 0 0 1 .4.1c1.1.1 1 0 1.1 0 .6 0 .8.1.5.1.8.1 2.2.2 2.8.2 1.1 0-.2 0 .4 0 .9.1 3.6.2 5.3.3-.5-.1.5 0 .8-.1-.4 0 1.7.1.1.1h.9c.6.1-1.6 0-.6.1 1.1 0 1.8-.1 3 0-.4.1 1 0 .7.1h-1 .2c2.3.1.7-.1 1.9-.1 1.4 0 1.1.1 1.2.1h1.3c-.9 0-1.6-.1-1.2-.1.6.1 2.1 0 2.5 0-2-.1-1.4 0-3.3-.1-.3 0-.2.1-1.3 0 .7 0-.1 0-.2-.1.2 0-.8 0-1.1 0s.7-.1-.5-.1l-.2.1c-.4 0 .2-.1-.8-.1.5 0-.2-.1 1.1-.1-1.5-.1-2.4 0-3.6 0h.3-1.1c-.8-.1.6 0 .4 0l-1.3-.1h0-.8.8H92c.2 0-1.1-.1-.2-.1l-2-.1-.2-.1c-.5 0-.5 0 .1 0-.7 0-3-.1-2.7-.2l-4-.2c1.5.1-1.7-.2-.1-.1-.9-.1-1.1 0-1.8-.1s-.4-.1.4-.1h-.8 0l-.7-.1c-.8-.1-.2-.1-1-.1h-.2l-.5-.1c.2 0-.3 0-.9 0h0l-.7-.1c.7 0-.7-.1-.3-.1-.6-.1-.6-.1-1.7-.1l.2.1c-1.4-.1-.1-.1-1.2-.2l.1.1c-1.7-.2-2.8-.3-4.1-.4.7.1.5 0 .5 0l-3.9-.4c-.4-.1-.5-.1-1.6-.3-.8-.1-.9-.1-1.2-.1l-2.3-.3c-.2 0-.7-.1-1.2-.1h-.1l.1.1c-1.4-.3-2.4-.2-3.8-.5h.2l-.6-.1c-.1 0 .2 0 .2 0l-2.8-.4.5.1c-.6-.1-1-.1-1.6-.2 1.1.1-.9-.1-1.1-.2l.6.1c-.5-.1-.8-.1-.8-.1-1-.1-.7-.2-1.7-.3l.7.1c.2.1-.3 0-.8-.1-.1 0-.4-.1-.1 0-.8-.1-2.1-.3-2.4-.3-.5-.1-.3-.1 0-.1l-2.6-.3h0l-.6-.1-.9-.2.3.1c-.6-.1-1-.1-1.6-.2h.3c-1.7-.2-1.9-.3-3.5-.5-.1 0 .1 0 .3 0-1.5-.1-1.1-.2-2.5-.3.1 0-.1 0 0 0l-.7-.1h.1-.5l-.4-.1H34c-.7-.2-1.7-.3-2.7-.4l.2.1c-2.5-.2-5.6-.8-8.6-1.1h.1l-1.2-.1c-.6-.1.4 0 .2 0-1.3-.1-.5 0-2.1-.2-.8-.1.3 0 .6 0-1.4-.1-3.5-.4-4.5-.5 0 0-.1 0 0 0l-3.3-.3h.6c-.4 0-.9-.1-1.2-.1h.4c-.8-.1-2.4-.2-2.5-.3.1 0 .1.1-.6 0-.4-.1-1.9-.1-3-.2.1 0 1 .1.7 0-.6-.1-1.1-.1-1.6-.1h.2l-2.6-.2c-.4-.1-2.5-.2-2.3-.2-.9-.1.8.1-.4 0-.3 0-1.1 0-1-.1h.1-.8.5-1.3c-.7-.1-1.6-.1-1.9-.1h.2c-1.9-.1-3.1-.3-4.6-.2-.1 0-.1 0 .1 0h-1.2.3-1.9 0c-1.3 0-3.3-.1-4.9 0h.2c-1.8.1-1.7 0-3 0h.1-1.2.3c-.9.1-2.5 0-2 0-.5 0-1.3.1-1.5.1-1.3.1-.3 0-1.1 0-.9 0-1.1.1-2.4.1h0c-.6 0-1 .1-1.8.1h.2c-1.3.1-1.7 0-2.7.2-.6 0-1.6.1-1.6 0-1.7.1-3 .2-4.6.4-.3-.1-.4 0-1.4.1h.1c-2.3.2-5 .3-7.6.5h-.1l-.5.1c-2.8.2-6.4.6-8.6.8-.7.1-1.8.3-3 .4h.1l-6.3.7c.1 0-.1 0 .2-.1-.5.1-1.3.1-1.7.2h.6c-.6.1-1.5.2-1.8.2l-1 .2h-.2-.2-.5c-.2 0-1.5.2-1.9.3-.1 0-1 .1-.3 0l-3.6.5.6-.1c.1 0-1 .2-1.6.3.7-.1.1-.1-.3-.1-.5.1.4 0 .2 0-.6.1-1.9.3-2.2.4l.4-.1c-.8.1-1.2.1-2 .3-.7.1-1.3.2-1.1.2-1.1.2-.4 0-.8.1-.5.1-2 .3-2.2.3-.6.2-2.8.4-3.1.6l-.9.1s-.2.1-.9.2-.5 0-.7 0l-.4.2c-3.8.6-8.8 1.6-13 2.4l-6.3 1.4.2-.1-2.1.4 1.6-.3c-.5.1-.8.2-1.3.3l-8.4 1.8c-1.9.5-1.3.2-3 .6.1 0 .2-.1.3-.1-1.9.4-3 .6-4.9 1.1.2-.1-1.3.2-1.1.2l-.2.1c-.4.1-1.5.2-1.3.2l-.9.2h-.1l-4.2.7c-1.4.3-3.2.5-5.1.8-1 .1-1.9.3-2.9.4l-2.8.3c-.5.1-1.5.2-2.4.3l-.9.1c-.8.1-1.7.3-2.5.3h.1c-.8.1-1.6.1-2.4.2-.9.1-1.8.1-1.5.1 0 0-.5.1-1 .1h-.9s-.7 0-2.1.1c-1.3 0-3.2.2-5.5.2h-3.8-2.1c-.7 0-1.4-.1-2.2-.1l-4.6-.3-4.9-.6c-6.6-.9-13.5-2.3-19.2-4.4-.7-.2-1.4-.5-2.1-.7s-1.3-.5-2-.8a65.84 65.84 0 0 1-3.6-1.5c-1.1-.4-2.1-1-3-1.4s-1.6-.8-2.3-1.2c-.4-.1-1.3-.6-1-.4l-1.2-.7c1 .6-.4-.1.6.5l-.6-.3c-.1-.1.9.4.7.4h.2c.5.3.8.4.9.6.5.2.8.3 2 1l-.3-.2c.9.5.6.4.7.5l-.2-.1.8.5c-.6-.3-1.6-.8-1.1-.6 1.1.6-.3-.2.6.3.5.3.4.2.3.2l.9.5-.2-.1 1.2.6c.2.2 1.3.5 1.9.9-.9-.4.1.1-.1 0l2.1.9c.2.1-.6-.2-.2-.1.4.2.7.3.9.4s1.6.7 1.5.7c1.5.6.7.1 2.1.7.2.1-1.1-.4-.5-.1l1.5.5c-.1 0-.3 0-.8-.2l2.6 1c.8.3 1.5.6 2.3.8l4.8 1.3c.5.2-.4-.1-.8-.1.7.2 1.2.3 1.8.4l1.4.3c.9.2 1.8.4 2.9.6h.1c.8.2 1.6.4 2.5.5l2.7.3c1.9.2 3.7.5 5.6.6l-.4-.1c.5 0 1.3 0 1.9.1.1 0-.4.1.6.1-.2 0-.7-.1-.5-.1.8.1 1.8.1 3 .2 1.1.1 2.4 0 3.8.1h4.2c1.4-.1 2.8-.1 4.1-.2 7-.4 14.7-1.1 21.5-2.2-1 .2-.6 0 .2-.1 2.2-.2 3.7-.6 5.9-.9 2-.4 3.9-.7 5.7-1 1.8-.4 3.7-.7 5.5-1.1h.1c.6-.1.7-.1 1.3-.3h0l3.8-.8v-.1l1.2-.3h0l.9-.2c-.1.1 2.3-.5 2.9-.6 1-.2 3-.7 4.6-1 .3 0 2.2-.5 3.5-.7l8.9-1.8h-.1l.8-.2h0c.6-.1 1.8-.4 2.5-.4-.4 0-.6.1-1 .2-.7.1 0-.1.8-.2h0l.6-.1c.1 0 .6-.1.7 0l7.2-1.3c-.3.1 2-.3 1.4-.2 1.6-.3-.3 0 .5-.2.5-.1.9-.2 1-.1-.2.1.4 0 0 .1l1.1-.2c.1 0-.1 0-.3.1 2.2-.4 4-.5 6-.9.2-.1-.8.1-.7.1 2-.4 1.8-.2 3.7-.5l-.4.1c.6-.1.9-.2 1.9-.3.2 0-.8.1-1.3.2.7-.1 2.4-.3 1.9-.3.8-.1 1.1-.1 1.6-.2 0 0-.8.1-.3 0 1.1-.1 2.9-.3 4.2-.5h0c1.3-.4 1.2-.3 2.6-.5h0z" />
          <path d="M15.4 214l-.6-.1h-.3l.9.1h0zm14.9 1.7h-.1.1zm41.4 5.3h-.2.2zm-2.3-.3c-.1 0-.3 0-.5-.1a.9.9 0 0 0 .5.1zm-49.1-6.2h-.4.4zm48.1 6.1l-.6-.1v.1z" />
          <path d="M72.4 221.1c-.2 0-.5-.1-.7-.1.2.1.5.1.7.1zm-26.9-3.5c-.5 0-.2 0 0 0zm20.4 2.8s-.1 0 0 0h-.2.2zm9 1h-.3.3 0zm-20.8-2.5h.2c-.1-.1-.3-.1-.2 0z" />
        </g>
      </g>
    </g>
    <path class="binoculars" d="M94.9 74.9c11.7-9 26.3-14.3 42.2-14.3 38.3 0 69.4 31.1 69.4 69.4 0 13.7-4 26.5-10.9 37.3m186.1-92.4c-11.7-9-26.3-14.3-42.2-14.3-38.3 0-69.4 31.1-69.4 69.4 0 13.7 4 26.5 10.9 37.3" fill="none" stroke="#3b3b3b" stroke-width="30.26" stroke-miterlimit="10" />
    <path class="binoculars" d="M370.1 60.6c-17.7 0-34.4 4.3-49.1 12l-38.2-41.5C276.2 13 258.8 0 238.3 0s-37.9 13-44.6 31.1l-38.2 41.4c-14.7-7.6-31.4-12-49.1-12C47.7 60.6 0 108.3 0 167.1s47.7 106.5 106.5 106.5S213 225.9 213 167.1c0-20.2-5.6-39.1-15.4-55.1l20.1-21.8c6.2 3 13.2 4.7 20.6 4.7s14.4-1.7 20.6-4.7L279 112c-9.8 16.1-15.4 35-15.4 55.1 0 58.8 47.7 106.5 106.5 106.5s106.5-47.7 106.5-106.5S429 60.6 370.1 60.6zM106.5 243.4c-42 0-76.2-34.2-76.2-76.2S64.5 91 106.5 91s76.2 34.2 76.2 76.2-34.1 76.2-76.2 76.2zm263.6 0c-42 0-76.2-34.2-76.2-76.2S328.1 91 370.1 91s76.2 34.2 76.2 76.2-34.1 76.2-76.2 76.2z" fill="#3b3b3b" />
  </svg>