<svg xmlns="http://www.w3.org/2000/svg" viewBox="0 0 754.48 428.73" xmlns:v="https://vecta.io/nano"><defs><linearGradient id="A" x1="1220.74" y1="2134.516" x2="210.222" y2="-231.178" gradientUnits="userSpaceOnUse"><stop offset="0" stop-color="#0b2e42"/><stop offset="1" stop-color="#617f8c"/></linearGradient></defs><g opacity=".1"><path d="M747.93 234.46c-4.53-11.45-51.23 6.94-80.97 14.89-7.15 1.91-15.84 2.19-24.24 3.82 4.62-22.02 3.65-44.5-9.21-58.62 2.85 22.84-19.12 44.74-37.04 71.06-11.52 2.04-23.22 3.51-35.43 4.15l-10.29-33.74c-12.42-37.78-53.34-97.85-97.42-94.48 32.37 19.32 29.72 80.22 56.3 125.74-18.68-2.72-39.04-7.55-61.9-15.17-86.65-28.89-114.03-43.28-168.43-97.31l-1.77-1.77c-.51-9.27-3.02-25.49-6.8-23.8-1.45.65-2.9 7.34-11.79 4.86-22.24-22.78-35.92-35.28-76.52-49.99 9.42-33.98 8-62.97-17.63-84.07 2.92 24.17-54.88 29.81-17.56 68.96-44.44-18.74-95.17.46-147.22.89 59.05 56.65 119.95 64.82 170.18 38.05 5.4 1 11.58 4.89 18.21 10.76.97.86 1.95 1.76 2.94 2.71.02.02.05.04.07.07 31.12 29.74 70.05 98.98 85.32 121.06 69.77 100.93 167.39 184.2 284.28 186.21 116.48 2 207.78-97.05 191.63-178.23-1.07-5.42-2.62-10.77-4.7-16.02z" fill="url(#A)"/></g></svg>