<?xml version="1.0" encoding="UTF-8"?><svg id="Layer_1" xmlns="http://www.w3.org/2000/svg" xmlns:xlink="http://www.w3.org/1999/xlink" viewBox="0 0 1025.32 405.57"><defs><style>.cls-1{fill:none;}.cls-2{fill:url(#linear-gradient);}.cls-3{clip-path:url(#clippath);}.cls-4{opacity:.1;}.cls-5{fill:#182542;}.cls-6{clip-path:url(#clippath-1);}.cls-7{clip-path:url(#clippath-4);}.cls-8{clip-path:url(#clippath-3);}.cls-9{clip-path:url(#clippath-2);}.cls-10{clip-path:url(#clippath-6);}.cls-11{clip-path:url(#clippath-5);}.cls-12{fill:url(#linear-gradient-3);}.cls-13{fill:url(#linear-gradient-4);}.cls-14{fill:url(#linear-gradient-2);}.cls-15{fill:url(#linear-gradient-5);}.cls-16{opacity:.5;}</style><clipPath id="clippath"><rect class="cls-1" x="-171.29" y="21.75" width="1196.61" height="936.66"/></clipPath><clipPath id="clippath-1"><path class="cls-1" d="M861.58,92.97s1.85-.22,3.59-.48c-1.48,.19-3.59,.46-3.59,.48"/></clipPath><linearGradient id="linear-gradient" x1="-171.29" y1="958.41" x2="-170.29" y2="958.41" gradientTransform="translate(538233.93 -95549.34) rotate(-90) scale(560.69 -560.69)" gradientUnits="userSpaceOnUse"><stop offset="0" stop-color="#0b2e42"/><stop offset="0" stop-color="#0b2e42"/><stop offset="1" stop-color="#617f8c"/></linearGradient><clipPath id="clippath-2"><path class="cls-1" d="M-.31,361.92c.18,0,110.26-66.91,347.46-66.91,91.8,0,278.45,67.19,566.6,66.91-224.03-26.9-358.68-75.32-393.34-83.6-35.51-8.48-71.2-16.23-107.13-22.71-17.72-3.19-35.49-6.08-53.32-8.57-.78-.11-1.55-.22-2.33-.32-1.64-.21-3.29-.43-4.93-.64-4.59-.58-9.18-1.13-13.77-1.66-8.88-1.01-17.77-1.92-26.66-2.71-35.69-3.16-71.57-4.44-107.38-3-17.58,.71-35.14,2.07-52.6,4.21-1.1,.14-2.2,.28-3.3,.41-.29,.04-.54,.07-.75,.09-1.25,.19-2.35,.36-2.54,.39-4.11,.61-8.2,1.26-12.29,1.96-8.43,1.44-16.82,3.07-25.17,4.9-16.92,3.72-33.65,8.28-50.09,13.75-8.36,2.78-16.63,5.8-24.82,9.06-2.19,.87-4.91,1.54-6.9,2.81-.12,.08,.5-.18,1.31-.52,.76-.33,1.52-.66,2.28-.99,2.1-.92-.53,.24-2.28,.99-.25,.11-.51,.22-.76,.33-3.8,1.66-7.59,3.38-11.34,5.15-5.08,2.4-10.12,4.9-15.1,7.49-.5,.26-.82,.79-.82,1.35v71.82Z"/></clipPath><linearGradient id="linear-gradient-2" x1="-171.29" y1="958.41" x2="-170.29" y2="958.41" gradientTransform="translate(-536917.59 95885.85) rotate(90) scale(560.69 -560.69)" gradientUnits="userSpaceOnUse"><stop offset="0" stop-color="#0b2e42"/><stop offset="0" stop-color="#0b2e42"/><stop offset="1" stop-color="#617f8c"/></linearGradient><clipPath id="clippath-3"><path class="cls-1" d="M370.99,83.17c-34.63-8.52-69.1-17.65-103.54-26.91-39.97-10.74-79.58-22.21-120.58-28.4-1.72-.26-3.45-.51-5.17-.76,1.89,.3-4.58-.6-5.66-.74-5.66-.69-11.32-1.31-16.99-1.87-11.34-1.11-22.7-1.96-34.07-2.56-1.33-.07-2.67-.13-4-.19,58.19,11.76,115.41,28.43,173.21,42.08,60.11,14.2,120.71,26.43,181.8,35.58,5.8,.87,11.61,1.69,17.43,2.51-27.59-5.7-55.06-12.02-82.43-18.75"/></clipPath><linearGradient id="linear-gradient-3" x1="-171.29" y1="958.41" x2="-170.29" y2="958.41" gradientTransform="translate(537637.75 -95579.02) rotate(-90) scale(560.69 -560.69)" gradientUnits="userSpaceOnUse"><stop offset="0" stop-color="#0b2e42"/><stop offset="0" stop-color="#0b2e42"/><stop offset="1" stop-color="#617f8c"/></linearGradient><clipPath id="clippath-4"><path class="cls-1" d="M204.62,160.25c9-.74,18.01-1.35,27.02-1.87-14.12-.11-28.23,.11-42.34,.74-15.52,.7-31.02,1.88-46.46,3.59-2.84,.32-5.68,.65-8.52,1-.64,.08-1.76,.21-2.64,.3-2.85,.39-5.7,.85-8.54,1.29-7.67,1.19-15.31,2.51-22.93,3.99-31.4,6.08-62.32,14.7-92.2,26.14-2.79,1.07-5.57,2.18-8.34,3.3v8.93c64.47-29.15,134.66-41.65,204.94-47.41"/></clipPath><linearGradient id="linear-gradient-4" x1="-171.29" y1="958.41" x2="-170.29" y2="958.41" gradientTransform="translate(537486.22 -95726.63) rotate(-90) scale(560.69 -560.69)" gradientUnits="userSpaceOnUse"><stop offset="0" stop-color="#0b2e42"/><stop offset="0" stop-color="#0b2e42"/><stop offset="1" stop-color="#617f8c"/></linearGradient><clipPath id="clippath-5"><path class="cls-1" d="M-64.75,618.87c38.52-3.79,77.78-.87,115.74,6.3,55.51,10.48,108.27,30.85,160.86,50.91,98.35,41.07,315.31-28.11,315.31-28.11-16.5,2.65-33.18,4.09-49.91,4.54-51.26,1.38-103.14-4.54-153-16.38-72.8-17.29-143.12-44.17-211.13-75.11-23.23-10.57-46.08-21.97-69.45-32.23-10.68-4.69-21.48-9.14-32.43-13.16-2.88-1.06-5.76-2.08-8.66-3.08-.27-.09-.54-.18-.81-.27-1.23-.4-2.46-.8-3.7-1.19-5.54-1.74-11.13-3.35-16.76-4.79-11.34-2.9-22.88-5.13-34.54-6.27-1.54-.15-3.08-.28-4.62-.39-.13,0-.24-.02-.35-.02-.07,0-.13,0-.21,0-.95-.04-1.89-.05-2.84-.08l-23.2,121.84c6.54-1.04,13.12-1.85,19.69-2.5"/></clipPath><linearGradient id="linear-gradient-5" x1="-171.29" y1="958.43" x2="-170.29" y2="958.43" gradientTransform="translate(49523.86 277290.15) scale(288.68 -288.68)" gradientUnits="userSpaceOnUse"><stop offset="0" stop-color="#0b2e42"/><stop offset="0" stop-color="#0b2e42"/><stop offset="1" stop-color="#617f8c"/></linearGradient><clipPath id="clippath-6"><path class="cls-1" d="M-288.58,257.38c-3.55,16.57-17.92,30.55-35.35,35.66-1.36,1.31-3.02,2.48-4.91,3.44-6.75,3.4-15.82,4.35-24.24,3.58-8.42-.77-16.32-3.12-23.79-5.79,6.89,.03,13.74-.84,20.17-2.45-2.66-.97-5.24-2.13-7.71-3.48-6.35-.43-12.61-1.69-18.7-3.04-.14-.08-.27-.16-.4-.25,4.41-.14,8.82-.28,13.23-.42-6.2-4.48-11.32-10.19-14.68-16.73-7.21,16.17-26.73,27.6-46.3,26.43,6.71-2.23,10.4-9.87,7.61-15.76-1.39-2.94-4.09-5.35-4.95-8.45-1.04-3.76,.86-7.67,3.23-10.91s5.3-6.25,6.68-9.92c1.39-3.67,.72-8.36-2.94-10.45,16.09-1.22,32.58,4.89,43.29,15.63,29.45-6.6,60.89-5.62,89.75,2.9m38.5-100.34c9.19,.45,18.79,.45,28.59-1.24,9.8-1.7,19.91-5.28,26.76-10.58,1.93-1.49,3.52-3.13,4.74-4.81,18.61-10.1,31.49-28.02,31.38-45.33-35.06,.04-71.17,8.23-103.11,23.3-14.91-7.43-35.25-8.63-53.3-2.73,4.69,.99,6.63,5.4,5.97,9.41-.66,4.01-3.25,7.82-5.14,11.69-1.89,3.88-3.08,8.27-.95,11.66,1.76,2.79,5.45,4.38,7.77,6.86,4.66,4.97,2.36,13.55-4.74,17.69,22.62-4.56,42.02-21.47,46.19-39.45,5.47,5.44,12.74,9.56,20.94,12.15-5,1.42-9.99,2.84-14.99,4.27,.17,.05,.34,.09,.52,.13,7.29-.45,14.75-1.03,22.1-2.46,3.15,.6,6.39,.99,9.67,1.17-6.93,3.46-14.54,6.3-22.41,8.28m-236.06-71.51c-3.93-3.56-9.99-5.59-15.9-5.19,1.34,.69,1.59,2.25,1.08,3.47-.51,1.22-1.59,2.22-2.46,3.29s-1.57,2.37-1.18,3.62c.32,1.03,1.31,1.83,1.82,2.8,1.02,1.95-.33,4.49-2.8,5.23,7.19,.39,14.36-3.41,17-8.78,1.23,2.17,3.12,4.07,5.4,5.56l-4.87,.14s.1,.06,.15,.08c2.25,.45,4.56,.87,6.9,1.01,.9,.44,1.85,.83,2.82,1.15-2.37,.54-4.89,.83-7.43,.82,2.74,.89,5.64,1.67,8.74,1.92,3.09,.26,6.42-.06,8.9-1.19,.7-.32,1.3-.71,1.8-1.15,6.4-1.7,11.69-6.33,12.99-11.83-10.6-2.83-22.15-3.16-32.97-.96M-164.48,221.85c-3.52-3.8-8.93-5.97-14.22-5.54,1.2,.74,1.42,2.4,.96,3.7-.46,1.3-1.42,2.36-2.2,3.51-.78,1.15-1.4,2.53-1.06,3.86,.28,1.1,1.17,1.95,1.63,2.99,.92,2.08-.3,4.79-2.5,5.58,6.43,.41,12.84-3.64,15.2-9.37,1.1,2.32,2.79,4.34,4.83,5.93-1.45,.05-2.9,.1-4.35,.15,.04,.03,.09,.06,.13,.09,2.01,.48,4.08,.93,6.17,1.08,.81,.47,1.65,.88,2.52,1.22-2.12,.57-4.38,.88-6.64,.87,2.45,.95,5.05,1.78,7.81,2.05,2.77,.27,5.75-.06,7.96-1.27,.63-.34,1.16-.76,1.61-1.22,5.73-1.81,10.45-6.75,11.62-12.62-9.48-3.02-19.81-3.37-29.48-1.03m-296.99-42.52c13-.32,25.42-7.81,29.49-17.39,2.5,3.55,6.14,6.55,10.44,8.79-2.91,.3-5.82,.6-8.73,.91,.09,.04,.18,.09,.27,.12,4.09,.46,8.29,.87,12.51,.79,1.69,.64,3.45,1.17,5.25,1.59-4.18,1.24-8.68,2.08-13.24,2.41,5.05,1.15,10.38,2.08,15.99,2.1,5.61,.02,11.57-.98,15.89-3.26,1.21-.64,2.26-1.39,3.1-2.21,11.32-3.79,20.22-12.48,21.85-22.1-19.47-3.4-40.32-2.38-59.52,2.87-7.55-5.58-18.72-8.23-29.32-6.72,2.51,1.01,3.15,3.64,2.4,5.8-.76,2.16-2.57,4.02-3.99,5.99-1.43,1.97-2.52,4.29-1.66,6.38,.7,1.72,2.6,2.96,3.64,4.57,2.1,3.21-.01,7.75-4.36,9.36m-84.28,26.83c6.32,1.39,13.19-.63,16.28-4.61,.79,1.96,2.2,3.79,4.02,5.35l-4.33-.62s.07,.06,.12,.09c1.93,.7,3.91,1.39,5.97,1.86,.74,.5,1.52,.95,2.35,1.36-2.17,.08-4.45-.06-6.7-.45,2.31,1.14,4.77,2.21,7.48,2.88,2.71,.67,5.7,.92,8.05,.37,.66-.15,1.25-.39,1.76-.67,5.91-.42,11.23-3.41,13.14-7.7-9-3.9-19.18-5.88-29.06-5.72-2.99-3.51-8.08-6.08-13.39-6.64,1.09,.77,1.1,2.07,.48,2.99-.62,.92-1.71,1.57-2.63,2.32-.92,.75-1.72,1.7-1.55,2.77,.14,.89,.91,1.69,1.22,2.56,.64,1.75-.91,3.61-3.2,3.84M-312.1,10.52c-5.4-7.15-13.71-11.23-21.82-10.41,1.84,1.39,2.18,4.52,1.48,6.96-.7,2.44-2.18,4.45-3.37,6.61-1.2,2.16-2.15,4.76-1.63,7.27,.43,2.06,1.8,3.67,2.5,5.63,1.4,3.92-.46,9.01-3.84,10.5,9.87,.77,19.71-6.84,23.34-17.61,1.69,4.35,4.27,8.16,7.4,11.15-2.22,.09-4.45,.19-6.67,.28,.06,.06,.13,.11,.2,.17,3.07,.9,6.23,1.74,9.43,2.02,1.24,.9,2.54,1.67,3.89,2.32-3.24,1.07-6.7,1.65-10.17,1.63,3.76,1.78,7.75,3.34,11.99,3.86,4.25,.52,8.82-.12,12.22-2.38,.96-.64,1.79-1.42,2.48-2.29,8.79-3.41,16.03-12.72,17.82-23.76-14.55-5.68-30.4-6.33-45.25-1.93"/></clipPath></defs><g class="cls-4"><g class="cls-3"><g class="cls-6"><rect class="cls-2" x="861.58" y="92.49" width="3.59" height=".53"/></g><g class="cls-9"><rect class="cls-14" x="-.31" y="237.27" width="914.06" height="124.93"/></g><g class="cls-8"><rect class="cls-12" x="80.97" y="21.75" width="372.45" height="80.17"/></g><g class="cls-7"><rect class="cls-13" x="-.31" y="158.27" width="231.95" height="49.39"/></g><g class="cls-11"><rect class="cls-15" x="57.27" y="287.58" width="328.18" height="641.51" transform="translate(-417.64 712) rotate(-79.22)"/></g></g></g><g class="cls-16"><g class="cls-10"><path class="cls-5" d="M5.27,173.58c-.11,.1-.19,.17-.25,.24-.09,.11-.2,.23-.34,.16-.13-.07-.28-.17-.3-.37-.02-.21,.07-.38,.14-.55,.39-.06,.5,.27,.75,.52"/><path class="cls-5" d="M.21,216.88c.14,0,.25,0,.4-.01,0,.14,0,.27-.03,.39-.02,.11-.06,.21-.09,.32-.08,0-.16,0-.26,0,0-.23-.02-.45-.03-.71"/></g></g></svg>