<?xml version="1.0" encoding="UTF-8"?><svg id="Layer_1" xmlns="http://www.w3.org/2000/svg" xmlns:xlink="http://www.w3.org/1999/xlink" viewBox="0 0 1025.32 392.18"><defs><style>.cls-1{fill:none;}.cls-2{fill:url(#linear-gradient);}.cls-3{clip-path:url(#clippath);}.cls-4{opacity:.1;}.cls-5{clip-path:url(#clippath-1);}.cls-6{clip-path:url(#clippath-4);}.cls-7{clip-path:url(#clippath-3);}.cls-8{clip-path:url(#clippath-2);}.cls-9{fill:url(#linear-gradient-3);}.cls-10{fill:url(#linear-gradient-4);}.cls-11{fill:url(#linear-gradient-2);}</style><clipPath id="clippath"><rect class="cls-1" x="-171.29" y="-432.84" width="1196.61" height="936.66"/></clipPath><clipPath id="clippath-1"><path class="cls-1" d="M-144.15,503.82c.11-.05,45.15-90.51,196.38-151.81,58.53-23.73,202.76-9.7,386.36-84.42-152.93,32.97-256.96,22.89-282.17,24.18-25.82,1.32-51.49,3.36-76.83,6.64-12.5,1.62-24.91,3.54-37.21,5.84-.54,.1-1.07,.2-1.61,.3-1.13,.23-2.25,.45-3.38,.68-3.14,.65-6.28,1.32-9.4,2.02-6.04,1.35-12.05,2.81-18.02,4.38-23.94,6.29-47.3,14.38-69.59,24.98-10.94,5.2-21.62,11-31.96,17.49-.65,.41-1.3,.83-1.95,1.24-.17,.11-.32,.2-.44,.28-.72,.5-1.36,.94-1.47,1.02-2.39,1.62-4.76,3.29-7.1,4.99-4.83,3.51-9.57,7.19-14.21,11.05-9.39,7.82-18.34,16.37-26.76,25.69-4.28,4.74-8.43,9.67-12.42,14.81-1.07,1.38-2.55,2.69-3.34,4.39-.05,.11,.25-.29,.64-.82,.36-.5,.73-1,1.09-1.51,.99-1.39-.25,.36-1.09,1.51-.12,.17-.24,.33-.36,.5-1.8,2.53-3.57,5.09-5.3,7.71-2.34,3.53-4.61,7.15-6.81,10.85-.22,.37-.23,.94-.01,1.47l26.98,66.56Z"/></clipPath><linearGradient id="linear-gradient" x1="-171.29" y1="503.8" x2="-170.29" y2="503.8" gradientTransform="translate(-346993.65 95914.66) rotate(90) scale(560.69 -689.02)" gradientUnits="userSpaceOnUse"><stop offset="0" stop-color="#0b2e42"/><stop offset="0" stop-color="#0b2e42"/><stop offset="1" stop-color="#617f8c"/></linearGradient><clipPath id="clippath-2"><path class="cls-1" d="M1025.32,100.67c-.11,0-66.16-21.34-208.47-21.34-55.08,0-167.07,21.43-339.95,21.34,134.41-8.58,215.2-24.02,236-26.66,21.3-2.7,42.72-5.18,64.28-7.24,10.63-1.02,21.29-1.94,31.99-2.73,.47-.03,.93-.07,1.4-.1,.99-.07,1.97-.14,2.96-.2,2.75-.19,5.51-.36,8.26-.53,5.33-.32,10.66-.61,16-.86,21.41-1.01,42.94-1.42,64.43-.96,10.55,.23,21.08,.66,31.56,1.34,.66,.04,1.32,.09,1.98,.13,.18,.01,.32,.02,.45,.03,.75,.06,1.41,.11,1.53,.12,2.46,.19,4.92,.4,7.38,.62,5.06,.46,10.09,.98,15.1,1.56,10.15,1.18,20.19,2.64,30.05,4.39,5.01,.89,9.98,1.85,14.89,2.89,1.32,.28,2.95,.49,4.14,.9,.07,.03-.3-.06-.79-.17-.46-.1-.91-.21-1.37-.32-1.26-.29,.32,.08,1.37,.32,.15,.04,.31,.07,.46,.1,2.28,.53,4.55,1.08,6.81,1.64,3.05,.76,6.07,1.56,9.06,2.39,.3,.08,.49,.25,.49,.43v22.91Z"/></clipPath><linearGradient id="linear-gradient-2" x1="-171.29" y1="503.75" x2="-170.29" y2="503.75" gradientTransform="translate(90834.72 30566.61) rotate(90) scale(178.82)" gradientUnits="userSpaceOnUse"><stop offset="0" stop-color="#0b2e42"/><stop offset="0" stop-color="#0b2e42"/><stop offset="1" stop-color="#617f8c"/></linearGradient><clipPath id="clippath-3"><path class="cls-1" d="M859.91,19.05c-7.28,.36-14.55,.85-21.8,1.44,11.23-1.83,22.51-3.33,33.84-4.42,12.47-1.2,24.99-1.92,37.55-2.11,2.31-.03,4.62-.05,6.94-.05,.52,0,1.44,0,2.15-.02,2.33,.03,4.67,.15,6.99,.24,6.29,.24,12.58,.62,18.87,1.15,25.93,2.2,51.86,6.95,77.39,14.62,2.39,.72,4.76,1.48,7.14,2.24l1.35,8.83c-55.76-20.97-113.56-24.79-170.41-21.93"/></clipPath><linearGradient id="linear-gradient-3" x1="-171.29" y1="503.83" x2="-170.29" y2="503.83" gradientTransform="translate(-281555.53 -95879.34) rotate(-90) scale(560.69)" gradientUnits="userSpaceOnUse"><stop offset="0" stop-color="#0b2e42"/><stop offset="0" stop-color="#0b2e42"/><stop offset="1" stop-color="#617f8c"/></linearGradient><clipPath id="clippath-4"><path class="cls-1" d="M-64.75,164.27c38.52-3.79,77.78-.87,115.74,6.3,55.51,10.48,108.27,30.85,160.86,50.91,98.35,41.07,315.31-28.11,315.31-28.11-16.5,2.65-33.18,4.09-49.91,4.54-51.26,1.38-103.14-4.54-153-16.38-72.8-17.29-143.12-44.17-211.13-75.11-23.23-10.57-46.08-21.97-69.45-32.23-10.68-4.69-21.48-9.14-32.43-13.16-2.88-1.06-5.76-2.08-8.66-3.08-.27-.09-.54-.18-.81-.27-1.23-.4-2.46-.8-3.7-1.19-5.54-1.74-11.13-3.35-16.76-4.79-11.34-2.9-22.88-5.13-34.54-6.27-1.54-.15-3.08-.28-4.62-.39-.13,0-.24-.02-.35-.02-.07,0-.13,0-.21,0-.95-.04-1.89-.05-2.84-.08l-23.2,121.84c6.54-1.04,13.12-1.85,19.69-2.5"/></clipPath><linearGradient id="linear-gradient-4" x1="-171.29" y1="503.83" x2="-170.29" y2="503.83" gradientTransform="translate(49523.86 145601.78) scale(288.68 -288.68)" gradientUnits="userSpaceOnUse"><stop offset="0" stop-color="#0b2e42"/><stop offset="0" stop-color="#0b2e42"/><stop offset="1" stop-color="#617f8c"/></linearGradient></defs><g class="cls-4"><g class="cls-3"><g class="cls-5"><rect class="cls-2" x="-193.38" y="161.66" width="654" height="448.08" transform="translate(-135.12 78.45) rotate(-22.07)"/></g><g class="cls-8"><rect class="cls-11" x="476.9" y="60.91" width="548.42" height="39.84"/></g><g class="cls-7"><rect class="cls-9" x="837.16" y="-.45" width="194.1" height="55.79" transform="translate(6.56 141.34) rotate(-8.68)"/></g><g class="cls-6"><rect class="cls-10" x="57.27" y="-167.02" width="328.18" height="641.51" transform="translate(28.93 342.43) rotate(-79.22)"/></g></g></g></svg>