<?xml version="1.0" encoding="utf-8"?>
<!-- Generator: Adobe Illustrator 26.4.1, SVG Export Plug-In . SVG Version: 6.00 Build 0)  -->
<svg version="1.1" id="Layer_2_00000007395272695395271300000010523069925647190919_"
	 xmlns="http://www.w3.org/2000/svg" xmlns:xlink="http://www.w3.org/1999/xlink" x="0px" y="0px" viewBox="0 0 1271.8 171.6"
	 style="enable-background:new 0 0 1271.8 171.6;" xml:space="preserve">
<style type="text/css">
	.st0{fill:#FFFFFF;}
</style>
<g id="Layer_1-2">
	<path class="st0" d="M88.6,47.8c70.9,13.5,143.2,16.3,214.7,13.4c65.7-2.7,130.8-10.8,196-19.6C590.3,29.2,681,13.2,772.6,5.1
		c76-6.7,152.6-7.3,228.8,0.8c44.8,5.4,89.5,13.9,133.2,27.2c11,3.3,21.9,7,32.7,10.9c5.5,2,11,4.2,16.5,6.4
		c2.7,1.1,5.4,2.2,8.2,3.4c0.6,0.3,1.6,0.7,2.6,1.2c1.1,0.6,2,1,2.6,1.3c55.8,29,66.8,44.3,74.7,58.9l0,56.3H0v-148
		C29.1,34.3,59,42.2,88.6,47.8z"/>
</g>
</svg>
