<?xml version="1.0" encoding="UTF-8"?><svg id="Layer_2" xmlns="http://www.w3.org/2000/svg" xmlns:xlink="http://www.w3.org/1999/xlink" viewBox="0 0 1027.18 767.22"><defs><style>.cls-1{fill:url(#linear-gradient);}.cls-2{fill:url(#linear-gradient-2);}.cls-3{opacity:.7;}</style><linearGradient id="linear-gradient" x1="997.63" y1="169.74" x2="997.63" y2="168.17" gradientUnits="userSpaceOnUse"><stop offset=".1" stop-color="#104463"/><stop offset="1" stop-color="#628899"/></linearGradient><linearGradient id="linear-gradient-2" x1="513.59" y1="767.22" x2="513.59" y2="-140.24" xlink:href="#linear-gradient"/></defs><g id="Layer_1-2"><g class="cls-3"><path class="cls-1" d="M996.87,169.41c.76-.33,1.52-.66,2.28-.99-1.75,.75-4.38,1.91-2.28,.99Z"/><path class="cls-2" d="M1015.23,377.77c4.01-1.25,7.99-2.58,11.95-3.96v104.58c-22.9,8.23-46.53,14.46-70.03,19.21-56.29,11.36-114,15.46-171.35,15.64-52.64,.16-105.08-3.38-157.53-7.42-73.31-5.66-146.46-13.83-219.98-16.52-61.1-2.24-122.39-.37-183.05,7.5-35.68,5.03-71.11,12.17-105.64,22.56-8.65,2.6-17.24,5.41-25.76,8.44-4.35,1.55-8.68,3.16-12.98,4.83-2.14,.83-4.27,1.68-6.4,2.54-.49,.2-1.27,.55-2.07,.92-.89,.42-1.55,.72-1.99,.94-27.74,13.64-46.33,27.92-57.68,39.13v-136.78c64.48-29.15,134.66-41.65,204.94-47.41,9-.74,18-1.35,27.02-1.87-14.12-.11-28.23,.11-42.34,.74-15.52,.7-31.02,1.88-46.45,3.59-2.84,.31-5.68,.65-8.52,1-.64,.08-1.76,.21-2.64,.3-2.85,.39-5.7,.85-8.54,1.29-7.67,1.19-15.31,2.51-22.93,3.99-31.4,6.08-62.32,14.7-92.2,26.14-2.79,1.07-5.57,2.18-8.34,3.3v-66.22c10.44-3.75,21-7.16,31.6-10.27,62.18-18.29,127.69-25.79,192.38-25.9,94.6-.15,187.78,16.84,280.57,33.36,42.96,7.65,85.94,15.25,129.1,21.75,10.75,1.62,21.51,3.15,32.28,4.64,1.24,.16,2.49,.33,3.73,.49,2.56,.33,5.12,.66,7.69,.99,5.41,.68,10.82,1.34,16.24,1.98,21.88,2.56,43.81,4.71,65.78,6.27,43.1,3.07,86.45,3.96,129.58,.92,10.49-.74,20.96-1.71,31.41-2.96,2.5-.3,13.39-1.93,2.08-.21,2.36-.36,4.73-.66,7.1-1.02,4.96-.74,9.91-1.55,14.85-2.43,19.64-3.49,39.09-8.09,58.12-14.05Zm11.95-223.68v116.22c-26.31,9.54-53.3,17.13-80.68,23.11-83.89,18.33-171.1,24.84-256.83,20.99-125.17-5.63-249.29-27.83-370.85-57.43-41.53-10.11-82.69-21.71-124.35-31.27-19.04-4.37-38.19-8.31-57.47-11.49-5.06-.84-10.13-1.62-15.21-2.35-.47-.07-.94-.13-1.41-.2-2.15-.26-4.3-.54-6.46-.8-9.66-1.13-19.36-2.03-29.07-2.64-19.57-1.22-39.25-1.27-58.78,.51-2.58,.24-5.15,.5-7.72,.8-.21,.02-.4,.05-.58,.07-.12,.02-.22,.03-.35,.05-1.57,.24-3.13,.5-4.7,.77V105.99c91.63-8.93,185.81-12.96,276.59,4.45,38.35,7.35,75.86,18.91,113.56,28.98,34.43,9.19,68.93,18.17,103.59,26.45,35.51,8.48,71.2,16.23,107.13,22.71,17.72,3.19,35.49,6.08,53.32,8.57,.78,.11,1.55,.21,2.33,.32,1.64,.21,3.28,.43,4.93,.64,4.59,.58,9.18,1.13,13.77,1.66,8.88,1.01,17.76,1.92,26.66,2.71,35.69,3.16,71.57,4.44,107.38,3,17.58-.71,35.14-2.07,52.6-4.21,1.1-.13,2.2-.28,3.31-.41,.29-.04,.54-.07,.75-.09,1.25-.19,2.35-.36,2.54-.39,4.1-.61,8.2-1.26,12.29-1.96,8.43-1.44,16.82-3.07,25.17-4.9,16.92-3.72,33.65-8.28,50.08-13.75,8.36-2.78,16.63-5.8,24.82-9.06,2.19-.87,4.91-1.54,6.9-2.81,.12-.08-.5,.18-1.31,.52,.25-.11,.51-.22,.76-.33,3.81-1.66,7.59-3.38,11.34-5.15,5.08-2.4,10.11-4.9,15.1-7.49,.5-.26,.82-.79,.82-1.35Zm-473.18,85.85c-27.59-5.7-55.06-12.02-82.43-18.75-34.63-8.52-69.1-17.65-103.54-26.9-39.97-10.74-79.58-22.21-120.58-28.4-1.72-.26-3.45-.51-5.17-.76,1.89,.3-4.58-.6-5.66-.74-5.66-.69-11.32-1.31-16.99-1.87-11.34-1.11-22.7-1.96-34.07-2.56-1.33-.07-2.67-.13-4-.19,58.19,11.76,115.41,28.43,173.21,42.08,60.11,14.2,120.71,26.43,181.81,35.58,5.8,.87,11.62,1.69,17.43,2.51Zm324.2-39.11c-1.48,.19-3.59,.46-3.59,.48,.01,.05,1.85-.22,3.59-.48Zm0,0c-1.48,.19-3.59,.46-3.59,.48,.01,.05,1.85-.22,3.59-.48Zm-153.92-118.67C505.6,91.76,290.55-39.05,12.72,11.77c0,0,0,32.27,0,32.27,91.63-8.93,185.81-12.96,276.59,4.45,38.35,7.35,75.86,18.91,113.56,28.98,34.43,9.19,68.93,18.17,103.59,26.45,35.51,8.48,71.2,16.23,107.13,22.71,17.72,3.19,35.49,6.08,53.32,8.57,.78,.11,1.55,.21,2.33,.32,1.64,.21,3.28,.43,4.93,.64,4.59,.58,9.18,1.13,13.77,1.66,8.88,1.01,17.76,1.92,26.66,2.71,35.69,3.16,71.57,4.44,107.38,3,17.58-.71,35.14-2.07,52.6-4.21,1.1-.13,2.2-.28,3.31-.41,.29-.04,.54-.07,.75-.09,1.25-.19,2.35-.36,2.54-.39,4.1-.61,8.2-1.26,12.29-1.96,8.43-1.44,16.82-3.07,25.17-4.9,16.92-3.72,33.65-8.28,50.08-13.75,8.36-2.78,16.63-5.8,24.82-9.06,2.19-.87,4.91-1.54,6.9-2.81,.12-.08-.5,.18-1.31,.52-.76,.33-1.52,.66-2.28,.99-2.1,.92,.53-.24,2.28-.99,.25-.11,.51-.22,.76-.33,3.81-1.66,7.59-3.38,11.34-5.15,5.08-2.4,10.11-4.9,15.1-7.49,.5-.26,.82-.79,.82-1.35V20.31c-.18,0-81.41,52.13-302.89,61.85Zm61.51,507.7c-52.64,.16-105.08-3.38-157.53-7.42-73.31-5.66-146.46-13.83-219.98-16.52-61.1-2.24-122.39-.37-183.05,7.5-35.68,5.03-71.11,12.17-105.64,22.56-8.65,2.6-17.24,5.41-25.76,8.44-4.35,1.55-8.68,3.16-12.98,4.83-2.14,.83-4.27,1.68-6.4,2.54-.49,.2-1.27,.55-2.07,.92-.89,.42-1.55,.72-1.99,.94-27.74,13.64-46.33,27.92-57.68,39.13-6.49,6.41-10.62,11.82-12.72,15.53l12.72,98.92c51.98-31.63,264.87-106.1,387.6-99.93,231.66,11.64,426.68,82.73,626.86-11.24v-101.03c-22.9,8.23-46.53,14.46-70.03,19.21-56.29,11.36-114,15.46-171.35,15.64Z"/></g></g></svg>